<?xml version="1.0" encoding="iso-8859-1"?>
<!-- Generator: Adobe Illustrator 18.0.0, SVG Export Plug-In . SVG Version: 6.00 Build 0)  -->
<!DOCTYPE svg PUBLIC "-//W3C//DTD SVG 1.1//EN" "http://www.w3.org/Graphics/SVG/1.1/DTD/svg11.dtd">
<svg version="1.1" id="Capa_1" xmlns="http://www.w3.org/2000/svg" xmlns:xlink="http://www.w3.org/1999/xlink" x="0px" y="0px"
	 viewBox="0 0 219.152 219.152" style="enable-background:new 0 0 219.152 219.152;" xml:space="preserve">
<g>
	<path d="M211.652,0H7.5C3.358,0,0,3.358,0,7.5v204.152c0,4.143,3.358,7.5,7.5,7.5h204.152c4.143,0,7.5-3.357,7.5-7.5V7.5
		C219.152,3.358,215.795,0,211.652,0z M204.152,204.152H15V15h189.152V204.152z"/>
	<path d="M53.235,165.917c1.464,1.464,3.384,2.196,5.303,2.196c1.919,0,3.839-0.732,5.303-2.196l45.735-45.733l45.733,45.733
		c1.465,1.464,3.384,2.196,5.304,2.196c1.919,0,3.839-0.732,5.304-2.196c2.929-2.93,2.929-7.678,0-10.607l-45.732-45.733
		l45.734-45.733c2.929-2.93,2.929-7.678,0-10.607c-2.93-2.928-7.678-2.928-10.607,0l-45.734,45.733L63.842,53.233
		c-2.929-2.928-7.678-2.928-10.606,0c-2.929,2.93-2.929,7.678,0,10.607l45.734,45.735L53.235,155.31
		C50.306,158.239,50.306,162.987,53.235,165.917z"/>
</g>
<g>
</g>
<g>
</g>
<g>
</g>
<g>
</g>
<g>
</g>
<g>
</g>
<g>
</g>
<g>
</g>
<g>
</g>
<g>
</g>
<g>
</g>
<g>
</g>
<g>
</g>
<g>
</g>
<g>
</g>
</svg>
